<mxfile host="app.diagrams.net" agent="Mozilla/5.0 (Windows NT 10.0; Win64; x64) AppleWebKit/537.36 (KHTML, like Gecko) Chrome/132.0.0.0 Safari/537.36" version="26.0.10">
  <diagram name="Page-1" id="eetf_GtQ7haDvkRMt0ze">
    <mxGraphModel dx="6050" dy="4210" grid="0" gridSize="10" guides="0" tooltips="1" connect="0" arrows="0" fold="1" page="0" pageScale="1" pageWidth="850" pageHeight="1100" math="0" shadow="0">
      <root>
        <mxCell id="0" />
        <mxCell id="1" parent="0" />
        <mxCell id="nEFwIu7rk_B7aw5XNvFK-2" value="Eureka server&lt;div&gt;&lt;br&gt;&lt;/div&gt;&lt;div&gt;ServiceRegistery&lt;/div&gt;" style="whiteSpace=wrap;html=1;aspect=fixed;" parent="1" vertex="1">
          <mxGeometry x="25" y="-1333" width="231" height="231" as="geometry" />
        </mxCell>
        <mxCell id="nEFwIu7rk_B7aw5XNvFK-3" value="API&lt;div&gt;GATEWAY&lt;/div&gt;" style="rounded=0;whiteSpace=wrap;html=1;direction=west;" parent="1" vertex="1">
          <mxGeometry x="-216" y="-1243" width="115" height="529" as="geometry" />
        </mxCell>
        <mxCell id="nEFwIu7rk_B7aw5XNvFK-4" value="" style="swimlane;startSize=0;" parent="1" vertex="1">
          <mxGeometry x="408" y="-1235" width="562" height="519" as="geometry" />
        </mxCell>
        <mxCell id="nEFwIu7rk_B7aw5XNvFK-5" value="" style="swimlane;startSize=0;" parent="nEFwIu7rk_B7aw5XNvFK-4" vertex="1">
          <mxGeometry x="46" y="32" width="464" height="124" as="geometry" />
        </mxCell>
        <mxCell id="nEFwIu7rk_B7aw5XNvFK-6" value="transactionDB" style="shape=cylinder3;whiteSpace=wrap;html=1;boundedLbl=1;backgroundOutline=1;size=15;" parent="nEFwIu7rk_B7aw5XNvFK-5" vertex="1">
          <mxGeometry x="294" y="20" width="127" height="78" as="geometry" />
        </mxCell>
        <mxCell id="nEFwIu7rk_B7aw5XNvFK-7" value="libraryTransactionService" style="rounded=1;whiteSpace=wrap;html=1;" parent="nEFwIu7rk_B7aw5XNvFK-5" vertex="1">
          <mxGeometry x="17" y="29" width="215" height="60" as="geometry" />
        </mxCell>
        <mxCell id="nEFwIu7rk_B7aw5XNvFK-8" value="bookService" style="rounded=1;whiteSpace=wrap;html=1;" parent="nEFwIu7rk_B7aw5XNvFK-4" vertex="1">
          <mxGeometry x="155" y="222" width="120" height="60" as="geometry" />
        </mxCell>
        <mxCell id="nEFwIu7rk_B7aw5XNvFK-9" value="userService" style="rounded=1;whiteSpace=wrap;html=1;" parent="nEFwIu7rk_B7aw5XNvFK-4" vertex="1">
          <mxGeometry x="152" y="369" width="120" height="60" as="geometry" />
        </mxCell>
        <mxCell id="nEFwIu7rk_B7aw5XNvFK-10" value="bookDB" style="shape=cylinder3;whiteSpace=wrap;html=1;boundedLbl=1;backgroundOutline=1;size=15;" parent="nEFwIu7rk_B7aw5XNvFK-4" vertex="1">
          <mxGeometry x="308" y="215" width="60" height="80" as="geometry" />
        </mxCell>
        <mxCell id="nEFwIu7rk_B7aw5XNvFK-11" value="UsersDB" style="shape=cylinder3;whiteSpace=wrap;html=1;boundedLbl=1;backgroundOutline=1;size=15;" parent="nEFwIu7rk_B7aw5XNvFK-4" vertex="1">
          <mxGeometry x="308" y="359" width="60" height="80" as="geometry" />
        </mxCell>
        <mxCell id="nEFwIu7rk_B7aw5XNvFK-12" value="" style="swimlane;startSize=0;" parent="nEFwIu7rk_B7aw5XNvFK-4" vertex="1">
          <mxGeometry x="106" y="191" width="330" height="124" as="geometry" />
        </mxCell>
        <mxCell id="nEFwIu7rk_B7aw5XNvFK-13" value="" style="swimlane;startSize=0;" parent="nEFwIu7rk_B7aw5XNvFK-4" vertex="1">
          <mxGeometry x="106" y="341" width="331" height="124" as="geometry" />
        </mxCell>
        <mxCell id="nEFwIu7rk_B7aw5XNvFK-14" value="Use" style="endArrow=open;endSize=12;dashed=1;html=1;rounded=0;entryX=0.009;entryY=0.59;entryDx=0;entryDy=0;entryPerimeter=0;" parent="1" target="nEFwIu7rk_B7aw5XNvFK-4" edge="1">
          <mxGeometry width="160" relative="1" as="geometry">
            <mxPoint x="-101" y="-940" as="sourcePoint" />
            <mxPoint x="59" y="-940" as="targetPoint" />
          </mxGeometry>
        </mxCell>
        <mxCell id="nEFwIu7rk_B7aw5XNvFK-15" value="Use" style="endArrow=open;endSize=12;dashed=1;html=1;rounded=0;entryX=0.457;entryY=0.995;entryDx=0;entryDy=0;entryPerimeter=0;" parent="1" target="nEFwIu7rk_B7aw5XNvFK-2" edge="1">
          <mxGeometry width="160" relative="1" as="geometry">
            <mxPoint x="12" y="-938" as="sourcePoint" />
            <mxPoint x="438" y="-1085" as="targetPoint" />
          </mxGeometry>
        </mxCell>
        <mxCell id="nEFwIu7rk_B7aw5XNvFK-16" value="" style="endArrow=classic;startArrow=classic;html=1;rounded=0;exitX=0.998;exitY=0.541;exitDx=0;exitDy=0;exitPerimeter=0;entryX=0.004;entryY=0.274;entryDx=0;entryDy=0;entryPerimeter=0;" parent="1" source="nEFwIu7rk_B7aw5XNvFK-2" target="nEFwIu7rk_B7aw5XNvFK-4" edge="1">
          <mxGeometry width="50" height="50" relative="1" as="geometry">
            <mxPoint x="333" y="-1060" as="sourcePoint" />
            <mxPoint x="383" y="-1110" as="targetPoint" />
          </mxGeometry>
        </mxCell>
        <mxCell id="nEFwIu7rk_B7aw5XNvFK-17" value="" style="swimlane;startSize=0;" parent="1" vertex="1">
          <mxGeometry x="-581" y="-1113" width="205" height="269" as="geometry" />
        </mxCell>
        <mxCell id="nEFwIu7rk_B7aw5XNvFK-18" value="" style="shape=actor;whiteSpace=wrap;html=1;" parent="nEFwIu7rk_B7aw5XNvFK-17" vertex="1">
          <mxGeometry x="26" y="147" width="67" height="80" as="geometry" />
        </mxCell>
        <mxCell id="nEFwIu7rk_B7aw5XNvFK-19" value="" style="shape=actor;whiteSpace=wrap;html=1;" parent="nEFwIu7rk_B7aw5XNvFK-17" vertex="1">
          <mxGeometry x="115" y="147" width="67" height="80" as="geometry" />
        </mxCell>
        <mxCell id="nEFwIu7rk_B7aw5XNvFK-20" value="Client" style="text;strokeColor=none;fillColor=none;html=1;fontSize=24;fontStyle=1;verticalAlign=middle;align=center;" parent="nEFwIu7rk_B7aw5XNvFK-17" vertex="1">
          <mxGeometry x="52.5" y="53" width="100" height="40" as="geometry" />
        </mxCell>
        <mxCell id="nEFwIu7rk_B7aw5XNvFK-21" value="" style="endArrow=classic;startArrow=classic;html=1;rounded=0;exitX=1;exitY=0.5;exitDx=0;exitDy=0;" parent="1" source="nEFwIu7rk_B7aw5XNvFK-17" target="nEFwIu7rk_B7aw5XNvFK-3" edge="1">
          <mxGeometry width="50" height="50" relative="1" as="geometry">
            <mxPoint x="-37" y="-1185" as="sourcePoint" />
            <mxPoint x="13" y="-1235" as="targetPoint" />
          </mxGeometry>
        </mxCell>
        <mxCell id="nEFwIu7rk_B7aw5XNvFK-22" value="bookServiceApplication" style="swimlane;whiteSpace=wrap;html=1;startSize=23;" parent="1" vertex="1">
          <mxGeometry x="-665" y="-141" width="1062" height="650" as="geometry">
            <mxRectangle x="-665" y="-141" width="160" height="26" as="alternateBounds" />
          </mxGeometry>
        </mxCell>
        <mxCell id="nEFwIu7rk_B7aw5XNvFK-23" value="&lt;p style=&quot;margin:0px;margin-top:4px;text-align:center;&quot;&gt;&lt;b&gt;BookController&lt;/b&gt;&lt;/p&gt;&lt;hr size=&quot;1&quot; style=&quot;border-style:solid;&quot;&gt;&lt;p style=&quot;margin:0px;margin-left:4px;&quot;&gt;+ bookService: BookService&lt;/p&gt;&lt;p style=&quot;margin:0px;margin-left:4px;&quot;&gt;&lt;br&gt;&lt;/p&gt;&lt;hr size=&quot;1&quot; style=&quot;border-style:solid;&quot;&gt;&lt;p style=&quot;margin:0px;margin-left:4px;&quot;&gt;+ addBook():&amp;nbsp; POST&lt;/p&gt;&lt;p style=&quot;margin:0px;margin-left:4px;&quot;&gt;+ getAllBooks(): GET&lt;/p&gt;&lt;p style=&quot;margin:0px;margin-left:4px;&quot;&gt;+ updateBook(): PATCH/POST&lt;/p&gt;&lt;p style=&quot;margin:0px;margin-left:4px;&quot;&gt;+ removeBook(): DELETE&lt;/p&gt;&lt;p style=&quot;margin:0px;margin-left:4px;&quot;&gt;+ returnBook: POST&lt;/p&gt;" style="verticalAlign=top;align=left;overflow=fill;html=1;whiteSpace=wrap;" parent="nEFwIu7rk_B7aw5XNvFK-22" vertex="1">
          <mxGeometry x="17" y="58.5" width="177" height="177" as="geometry" />
        </mxCell>
        <mxCell id="nEFwIu7rk_B7aw5XNvFK-24" value="&lt;p style=&quot;margin:0px;margin-top:4px;text-align:center;&quot;&gt;&lt;i&gt;&amp;lt;&amp;lt;Interface&amp;gt;&amp;gt;&lt;/i&gt;&lt;br&gt;&lt;b&gt;BookDAO&lt;/b&gt;&lt;/p&gt;&lt;hr size=&quot;1&quot; style=&quot;border-style:solid;&quot;&gt;&lt;p style=&quot;margin:0px;margin-left:4px;&quot;&gt;&lt;br&gt;&lt;/p&gt;&lt;p style=&quot;margin:0px;margin-left:4px;&quot;&gt;extends JpaRespository&lt;/p&gt;" style="verticalAlign=top;align=left;overflow=fill;html=1;whiteSpace=wrap;" parent="nEFwIu7rk_B7aw5XNvFK-22" vertex="1">
          <mxGeometry x="417" y="88.25" width="99.5" height="117.5" as="geometry" />
        </mxCell>
        <mxCell id="nEFwIu7rk_B7aw5XNvFK-25" value="&lt;p style=&quot;margin:0px;margin-top:4px;text-align:center;&quot;&gt;&lt;b&gt;Book&lt;/b&gt;&lt;/p&gt;&lt;hr size=&quot;1&quot; style=&quot;border-style:solid;&quot;&gt;&lt;p style=&quot;margin:0px;margin-left:4px;&quot;&gt;+ id: int&lt;/p&gt;&lt;p style=&quot;margin:0px;margin-left:4px;&quot;&gt;+ name: String&lt;/p&gt;&lt;p style=&quot;margin:0px;margin-left:4px;&quot;&gt;+ author: String&lt;/p&gt;&lt;p style=&quot;margin:0px;margin-left:4px;&quot;&gt;+ category: String&lt;/p&gt;&lt;p style=&quot;margin:0px;margin-left:4px;&quot;&gt;&lt;br&gt;&lt;/p&gt;&lt;hr size=&quot;1&quot; style=&quot;border-style:solid;&quot;&gt;&lt;p style=&quot;margin:0px;margin-left:4px;&quot;&gt;+ Book(): constructor&lt;/p&gt;&lt;p style=&quot;margin:0px;margin-left:4px;&quot;&gt;+ toString()&lt;/p&gt;&lt;p style=&quot;margin:0px;margin-left:4px;&quot;&gt;+ getters and setters&lt;/p&gt;" style="verticalAlign=top;align=left;overflow=fill;html=1;whiteSpace=wrap;" parent="nEFwIu7rk_B7aw5XNvFK-22" vertex="1">
          <mxGeometry x="542" y="52" width="134" height="177" as="geometry" />
        </mxCell>
        <mxCell id="nEFwIu7rk_B7aw5XNvFK-26" value="&lt;p style=&quot;margin:0px;margin-top:4px;text-align:center;&quot;&gt;&lt;b&gt;BookService&lt;/b&gt;&lt;/p&gt;&lt;hr size=&quot;1&quot; style=&quot;border-style:solid;&quot;&gt;&lt;p style=&quot;margin:0px;margin-left:4px;&quot;&gt;+ booksDAO: BooksDAO&lt;/p&gt;&lt;p style=&quot;margin:0px;margin-left:4px;&quot;&gt;&lt;br&gt;&lt;/p&gt;&lt;p style=&quot;margin:0px;margin-left:4px;&quot;&gt;&lt;br&gt;&lt;/p&gt;&lt;hr size=&quot;1&quot; style=&quot;border-style:solid;&quot;&gt;&lt;p style=&quot;margin: 0px 0px 0px 4px;&quot;&gt;+ addBook():&amp;nbsp; POST&lt;/p&gt;&lt;p style=&quot;margin: 0px 0px 0px 4px;&quot;&gt;+ getAllBooks(): GET&lt;/p&gt;&lt;p style=&quot;margin: 0px 0px 0px 4px;&quot;&gt;+ updateBook(): PATCH/POST&lt;/p&gt;&lt;p style=&quot;margin: 0px 0px 0px 4px;&quot;&gt;+ removeBook(): DELETE&lt;/p&gt;&lt;p style=&quot;margin: 0px 0px 0px 4px;&quot;&gt;&lt;span style=&quot;background-color: transparent; color: light-dark(rgb(0, 0, 0), rgb(255, 255, 255));&quot;&gt;+ returnBook: POST&lt;/span&gt;&lt;/p&gt;" style="verticalAlign=top;align=left;overflow=fill;html=1;whiteSpace=wrap;" parent="nEFwIu7rk_B7aw5XNvFK-22" vertex="1">
          <mxGeometry x="237" y="52" width="152" height="208.5" as="geometry" />
        </mxCell>
        <mxCell id="nEFwIu7rk_B7aw5XNvFK-27" value="BOOK" style="shape=datastore;whiteSpace=wrap;html=1;" parent="nEFwIu7rk_B7aw5XNvFK-22" vertex="1">
          <mxGeometry x="719" y="172" width="152" height="112" as="geometry" />
        </mxCell>
        <mxCell id="nEFwIu7rk_B7aw5XNvFK-28" value="BookController" style="shape=table;startSize=28;container=1;collapsible=0;childLayout=tableLayout;rounded=1;swimlaneLine=1;" parent="nEFwIu7rk_B7aw5XNvFK-22" vertex="1">
          <mxGeometry x="17" y="309" width="634.1815538194444" height="195.62994610821727" as="geometry" />
        </mxCell>
        <mxCell id="nEFwIu7rk_B7aw5XNvFK-29" value="" style="shape=tableRow;horizontal=0;startSize=0;swimlaneHead=0;swimlaneBody=0;strokeColor=inherit;top=0;left=0;bottom=0;right=0;collapsible=0;dropTarget=0;fillColor=none;points=[[0,0.5],[1,0.5]];portConstraint=eastwest;" parent="nEFwIu7rk_B7aw5XNvFK-28" vertex="1">
          <mxGeometry y="28" width="634.1815538194444" height="27" as="geometry" />
        </mxCell>
        <mxCell id="nEFwIu7rk_B7aw5XNvFK-30" value="Method" style="shape=partialRectangle;html=1;whiteSpace=wrap;connectable=0;strokeColor=inherit;overflow=hidden;fillColor=none;top=0;left=0;bottom=0;right=0;pointerEvents=1;" parent="nEFwIu7rk_B7aw5XNvFK-29" vertex="1">
          <mxGeometry width="81" height="27" as="geometry">
            <mxRectangle width="81" height="27" as="alternateBounds" />
          </mxGeometry>
        </mxCell>
        <mxCell id="nEFwIu7rk_B7aw5XNvFK-31" value="Endpoint" style="shape=partialRectangle;html=1;whiteSpace=wrap;connectable=0;strokeColor=inherit;overflow=hidden;fillColor=none;top=0;left=0;bottom=0;right=0;pointerEvents=1;" parent="nEFwIu7rk_B7aw5XNvFK-29" vertex="1">
          <mxGeometry x="81" width="169" height="27" as="geometry">
            <mxRectangle width="169" height="27" as="alternateBounds" />
          </mxGeometry>
        </mxCell>
        <mxCell id="nEFwIu7rk_B7aw5XNvFK-32" value="Desc" style="shape=partialRectangle;html=1;whiteSpace=wrap;connectable=0;strokeColor=inherit;overflow=hidden;fillColor=none;top=0;left=0;bottom=0;right=0;pointerEvents=1;" parent="nEFwIu7rk_B7aw5XNvFK-29" vertex="1">
          <mxGeometry x="250" width="192" height="27" as="geometry">
            <mxRectangle width="192" height="27" as="alternateBounds" />
          </mxGeometry>
        </mxCell>
        <mxCell id="nEFwIu7rk_B7aw5XNvFK-33" value="MethodName" style="shape=partialRectangle;html=1;whiteSpace=wrap;connectable=0;strokeColor=inherit;overflow=hidden;fillColor=none;top=0;left=0;bottom=0;right=0;pointerEvents=1;" parent="nEFwIu7rk_B7aw5XNvFK-29" vertex="1">
          <mxGeometry x="442" width="192" height="27" as="geometry">
            <mxRectangle width="192" height="27" as="alternateBounds" />
          </mxGeometry>
        </mxCell>
        <mxCell id="nEFwIu7rk_B7aw5XNvFK-34" value="" style="shape=tableRow;horizontal=0;startSize=0;swimlaneHead=0;swimlaneBody=0;strokeColor=inherit;top=0;left=0;bottom=0;right=0;collapsible=0;dropTarget=0;fillColor=none;points=[[0,0.5],[1,0.5]];portConstraint=eastwest;" parent="nEFwIu7rk_B7aw5XNvFK-28" vertex="1">
          <mxGeometry y="55" width="634.1815538194444" height="30" as="geometry" />
        </mxCell>
        <mxCell id="nEFwIu7rk_B7aw5XNvFK-35" value="POST" style="shape=partialRectangle;html=1;whiteSpace=wrap;connectable=0;strokeColor=inherit;overflow=hidden;fillColor=none;top=0;left=0;bottom=0;right=0;pointerEvents=1;" parent="nEFwIu7rk_B7aw5XNvFK-34" vertex="1">
          <mxGeometry width="81" height="30" as="geometry">
            <mxRectangle width="81" height="30" as="alternateBounds" />
          </mxGeometry>
        </mxCell>
        <mxCell id="nEFwIu7rk_B7aw5XNvFK-36" value="&lt;div&gt;/book/createBook&lt;/div&gt;" style="shape=partialRectangle;html=1;whiteSpace=wrap;connectable=0;strokeColor=inherit;overflow=hidden;fillColor=none;top=0;left=0;bottom=0;right=0;pointerEvents=1;" parent="nEFwIu7rk_B7aw5XNvFK-34" vertex="1">
          <mxGeometry x="81" width="169" height="30" as="geometry">
            <mxRectangle width="169" height="30" as="alternateBounds" />
          </mxGeometry>
        </mxCell>
        <mxCell id="nEFwIu7rk_B7aw5XNvFK-37" value="Create a new book" style="shape=partialRectangle;html=1;whiteSpace=wrap;connectable=0;strokeColor=inherit;overflow=hidden;fillColor=none;top=0;left=0;bottom=0;right=0;pointerEvents=1;" parent="nEFwIu7rk_B7aw5XNvFK-34" vertex="1">
          <mxGeometry x="250" width="192" height="30" as="geometry">
            <mxRectangle width="192" height="30" as="alternateBounds" />
          </mxGeometry>
        </mxCell>
        <mxCell id="nEFwIu7rk_B7aw5XNvFK-38" style="shape=partialRectangle;html=1;whiteSpace=wrap;connectable=0;strokeColor=inherit;overflow=hidden;fillColor=none;top=0;left=0;bottom=0;right=0;pointerEvents=1;" parent="nEFwIu7rk_B7aw5XNvFK-34" vertex="1">
          <mxGeometry x="442" width="192" height="30" as="geometry">
            <mxRectangle width="192" height="30" as="alternateBounds" />
          </mxGeometry>
        </mxCell>
        <mxCell id="nEFwIu7rk_B7aw5XNvFK-39" value="" style="shape=tableRow;horizontal=0;startSize=0;swimlaneHead=0;swimlaneBody=0;strokeColor=inherit;top=0;left=0;bottom=0;right=0;collapsible=0;dropTarget=0;fillColor=none;points=[[0,0.5],[1,0.5]];portConstraint=eastwest;" parent="nEFwIu7rk_B7aw5XNvFK-28" vertex="1">
          <mxGeometry y="85" width="634.1815538194444" height="28" as="geometry" />
        </mxCell>
        <mxCell id="nEFwIu7rk_B7aw5XNvFK-40" value="GET" style="shape=partialRectangle;html=1;whiteSpace=wrap;connectable=0;strokeColor=inherit;overflow=hidden;fillColor=none;top=0;left=0;bottom=0;right=0;pointerEvents=1;" parent="nEFwIu7rk_B7aw5XNvFK-39" vertex="1">
          <mxGeometry width="81" height="28" as="geometry">
            <mxRectangle width="81" height="28" as="alternateBounds" />
          </mxGeometry>
        </mxCell>
        <mxCell id="nEFwIu7rk_B7aw5XNvFK-41" value="/book/getBooks" style="shape=partialRectangle;html=1;whiteSpace=wrap;connectable=0;strokeColor=inherit;overflow=hidden;fillColor=none;top=0;left=0;bottom=0;right=0;pointerEvents=1;" parent="nEFwIu7rk_B7aw5XNvFK-39" vertex="1">
          <mxGeometry x="81" width="169" height="28" as="geometry">
            <mxRectangle width="169" height="28" as="alternateBounds" />
          </mxGeometry>
        </mxCell>
        <mxCell id="nEFwIu7rk_B7aw5XNvFK-42" value="Get all books" style="shape=partialRectangle;html=1;whiteSpace=wrap;connectable=0;strokeColor=inherit;overflow=hidden;fillColor=none;top=0;left=0;bottom=0;right=0;pointerEvents=1;" parent="nEFwIu7rk_B7aw5XNvFK-39" vertex="1">
          <mxGeometry x="250" width="192" height="28" as="geometry">
            <mxRectangle width="192" height="28" as="alternateBounds" />
          </mxGeometry>
        </mxCell>
        <mxCell id="nEFwIu7rk_B7aw5XNvFK-43" style="shape=partialRectangle;html=1;whiteSpace=wrap;connectable=0;strokeColor=inherit;overflow=hidden;fillColor=none;top=0;left=0;bottom=0;right=0;pointerEvents=1;" parent="nEFwIu7rk_B7aw5XNvFK-39" vertex="1">
          <mxGeometry x="442" width="192" height="28" as="geometry">
            <mxRectangle width="192" height="28" as="alternateBounds" />
          </mxGeometry>
        </mxCell>
        <mxCell id="nEFwIu7rk_B7aw5XNvFK-44" value="" style="shape=tableRow;horizontal=0;startSize=0;swimlaneHead=0;swimlaneBody=0;strokeColor=inherit;top=0;left=0;bottom=0;right=0;collapsible=0;dropTarget=0;fillColor=none;points=[[0,0.5],[1,0.5]];portConstraint=eastwest;" parent="nEFwIu7rk_B7aw5XNvFK-28" vertex="1">
          <mxGeometry y="113" width="634.1815538194444" height="27" as="geometry" />
        </mxCell>
        <mxCell id="nEFwIu7rk_B7aw5XNvFK-45" value="GET" style="shape=partialRectangle;html=1;whiteSpace=wrap;connectable=0;strokeColor=inherit;overflow=hidden;fillColor=none;top=0;left=0;bottom=0;right=0;pointerEvents=1;" parent="nEFwIu7rk_B7aw5XNvFK-44" vertex="1">
          <mxGeometry width="81" height="27" as="geometry">
            <mxRectangle width="81" height="27" as="alternateBounds" />
          </mxGeometry>
        </mxCell>
        <mxCell id="nEFwIu7rk_B7aw5XNvFK-46" value="/book/getBook/{id}" style="shape=partialRectangle;html=1;whiteSpace=wrap;connectable=0;strokeColor=inherit;overflow=hidden;fillColor=none;top=0;left=0;bottom=0;right=0;pointerEvents=1;" parent="nEFwIu7rk_B7aw5XNvFK-44" vertex="1">
          <mxGeometry x="81" width="169" height="27" as="geometry">
            <mxRectangle width="169" height="27" as="alternateBounds" />
          </mxGeometry>
        </mxCell>
        <mxCell id="nEFwIu7rk_B7aw5XNvFK-47" value="Get a specific book by ID" style="shape=partialRectangle;html=1;whiteSpace=wrap;connectable=0;strokeColor=inherit;overflow=hidden;fillColor=none;top=0;left=0;bottom=0;right=0;pointerEvents=1;" parent="nEFwIu7rk_B7aw5XNvFK-44" vertex="1">
          <mxGeometry x="250" width="192" height="27" as="geometry">
            <mxRectangle width="192" height="27" as="alternateBounds" />
          </mxGeometry>
        </mxCell>
        <mxCell id="nEFwIu7rk_B7aw5XNvFK-48" style="shape=partialRectangle;html=1;whiteSpace=wrap;connectable=0;strokeColor=inherit;overflow=hidden;fillColor=none;top=0;left=0;bottom=0;right=0;pointerEvents=1;" parent="nEFwIu7rk_B7aw5XNvFK-44" vertex="1">
          <mxGeometry x="442" width="192" height="27" as="geometry">
            <mxRectangle width="192" height="27" as="alternateBounds" />
          </mxGeometry>
        </mxCell>
        <mxCell id="nEFwIu7rk_B7aw5XNvFK-49" value="" style="shape=tableRow;horizontal=0;startSize=0;swimlaneHead=0;swimlaneBody=0;strokeColor=inherit;top=0;left=0;bottom=0;right=0;collapsible=0;dropTarget=0;fillColor=none;points=[[0,0.5],[1,0.5]];portConstraint=eastwest;" parent="nEFwIu7rk_B7aw5XNvFK-28" vertex="1">
          <mxGeometry y="140" width="634.1815538194444" height="28" as="geometry" />
        </mxCell>
        <mxCell id="nEFwIu7rk_B7aw5XNvFK-50" value="PUT" style="shape=partialRectangle;html=1;whiteSpace=wrap;connectable=0;strokeColor=inherit;overflow=hidden;fillColor=none;top=0;left=0;bottom=0;right=0;pointerEvents=1;" parent="nEFwIu7rk_B7aw5XNvFK-49" vertex="1">
          <mxGeometry width="81" height="28" as="geometry">
            <mxRectangle width="81" height="28" as="alternateBounds" />
          </mxGeometry>
        </mxCell>
        <mxCell id="nEFwIu7rk_B7aw5XNvFK-51" value="/book/updateBook/{id}" style="shape=partialRectangle;html=1;whiteSpace=wrap;connectable=0;strokeColor=inherit;overflow=hidden;fillColor=none;top=0;left=0;bottom=0;right=0;pointerEvents=1;" parent="nEFwIu7rk_B7aw5XNvFK-49" vertex="1">
          <mxGeometry x="81" width="169" height="28" as="geometry">
            <mxRectangle width="169" height="28" as="alternateBounds" />
          </mxGeometry>
        </mxCell>
        <mxCell id="nEFwIu7rk_B7aw5XNvFK-52" value="Update an existing book by ID" style="shape=partialRectangle;html=1;whiteSpace=wrap;connectable=0;strokeColor=inherit;overflow=hidden;fillColor=none;top=0;left=0;bottom=0;right=0;pointerEvents=1;" parent="nEFwIu7rk_B7aw5XNvFK-49" vertex="1">
          <mxGeometry x="250" width="192" height="28" as="geometry">
            <mxRectangle width="192" height="28" as="alternateBounds" />
          </mxGeometry>
        </mxCell>
        <mxCell id="nEFwIu7rk_B7aw5XNvFK-53" style="shape=partialRectangle;html=1;whiteSpace=wrap;connectable=0;strokeColor=inherit;overflow=hidden;fillColor=none;top=0;left=0;bottom=0;right=0;pointerEvents=1;" parent="nEFwIu7rk_B7aw5XNvFK-49" vertex="1">
          <mxGeometry x="442" width="192" height="28" as="geometry">
            <mxRectangle width="192" height="28" as="alternateBounds" />
          </mxGeometry>
        </mxCell>
        <mxCell id="nEFwIu7rk_B7aw5XNvFK-54" value="" style="shape=tableRow;horizontal=0;startSize=0;swimlaneHead=0;swimlaneBody=0;strokeColor=inherit;top=0;left=0;bottom=0;right=0;collapsible=0;dropTarget=0;fillColor=none;points=[[0,0.5],[1,0.5]];portConstraint=eastwest;" parent="nEFwIu7rk_B7aw5XNvFK-28" vertex="1">
          <mxGeometry y="168" width="634.1815538194444" height="28" as="geometry" />
        </mxCell>
        <mxCell id="nEFwIu7rk_B7aw5XNvFK-55" value="DELETE" style="shape=partialRectangle;html=1;whiteSpace=wrap;connectable=0;strokeColor=inherit;overflow=hidden;fillColor=none;top=0;left=0;bottom=0;right=0;pointerEvents=1;" parent="nEFwIu7rk_B7aw5XNvFK-54" vertex="1">
          <mxGeometry width="81" height="28" as="geometry">
            <mxRectangle width="81" height="28" as="alternateBounds" />
          </mxGeometry>
        </mxCell>
        <mxCell id="nEFwIu7rk_B7aw5XNvFK-56" value="/book/deleteBook/{id}" style="shape=partialRectangle;html=1;whiteSpace=wrap;connectable=0;strokeColor=inherit;overflow=hidden;fillColor=none;top=0;left=0;bottom=0;right=0;pointerEvents=1;" parent="nEFwIu7rk_B7aw5XNvFK-54" vertex="1">
          <mxGeometry x="81" width="169" height="28" as="geometry">
            <mxRectangle width="169" height="28" as="alternateBounds" />
          </mxGeometry>
        </mxCell>
        <mxCell id="nEFwIu7rk_B7aw5XNvFK-57" value="Delete a book by ID" style="shape=partialRectangle;html=1;whiteSpace=wrap;connectable=0;strokeColor=inherit;overflow=hidden;fillColor=none;top=0;left=0;bottom=0;right=0;pointerEvents=1;" parent="nEFwIu7rk_B7aw5XNvFK-54" vertex="1">
          <mxGeometry x="250" width="192" height="28" as="geometry">
            <mxRectangle width="192" height="28" as="alternateBounds" />
          </mxGeometry>
        </mxCell>
        <mxCell id="nEFwIu7rk_B7aw5XNvFK-58" style="shape=partialRectangle;html=1;whiteSpace=wrap;connectable=0;strokeColor=inherit;overflow=hidden;fillColor=none;top=0;left=0;bottom=0;right=0;pointerEvents=1;" parent="nEFwIu7rk_B7aw5XNvFK-54" vertex="1">
          <mxGeometry x="442" width="192" height="28" as="geometry">
            <mxRectangle width="192" height="28" as="alternateBounds" />
          </mxGeometry>
        </mxCell>
        <mxCell id="nEFwIu7rk_B7aw5XNvFK-59" value="&lt;h3&gt;&lt;strong&gt;Project Overview&lt;/strong&gt;&lt;/h3&gt;&lt;p&gt;&lt;strong&gt;Objective:&lt;/strong&gt; A Library Management System that helps users (students, librarians) to perform operations such as:&lt;/p&gt;&lt;ul&gt;&lt;li&gt;Adding books&lt;/li&gt;&lt;li&gt;Issuing books to users&lt;/li&gt;&lt;li&gt;Returning books&lt;/li&gt;&lt;li&gt;Viewing available books&lt;/li&gt;&lt;li&gt;Managing user records&lt;/li&gt;&lt;/ul&gt;" style="text;whiteSpace=wrap;html=1;" parent="1" vertex="1">
          <mxGeometry x="1577" y="-873" width="1085" height="314" as="geometry" />
        </mxCell>
        <mxCell id="nEFwIu7rk_B7aw5XNvFK-60" value="userServiceApplication" style="swimlane;whiteSpace=wrap;html=1;" parent="1" vertex="1">
          <mxGeometry x="592" y="-119" width="893" height="294" as="geometry" />
        </mxCell>
        <mxCell id="nEFwIu7rk_B7aw5XNvFK-61" value="&lt;p style=&quot;margin:0px;margin-top:4px;text-align:center;&quot;&gt;&lt;b&gt;UserController&lt;/b&gt;&lt;/p&gt;&lt;hr size=&quot;1&quot; style=&quot;border-style:solid;&quot;&gt;&lt;p style=&quot;margin:0px;margin-left:4px;&quot;&gt;+ bookService: BookService&lt;/p&gt;&lt;p style=&quot;margin:0px;margin-left:4px;&quot;&gt;&lt;br&gt;&lt;/p&gt;&lt;hr size=&quot;1&quot; style=&quot;border-style:solid;&quot;&gt;&lt;p style=&quot;margin:0px;margin-left:4px;&quot;&gt;+ addBook():&amp;nbsp; POST&lt;/p&gt;&lt;p style=&quot;margin:0px;margin-left:4px;&quot;&gt;+ getAllBooks(): GET&lt;/p&gt;&lt;p style=&quot;margin:0px;margin-left:4px;&quot;&gt;+ updateBook(): PATCH/POST&lt;/p&gt;&lt;p style=&quot;margin:0px;margin-left:4px;&quot;&gt;+ removeBook(): DELETE&lt;/p&gt;&lt;p style=&quot;margin:0px;margin-left:4px;&quot;&gt;+ rentBook(): POST&lt;/p&gt;&lt;p style=&quot;margin:0px;margin-left:4px;&quot;&gt;+ returnBook: POST&lt;/p&gt;" style="verticalAlign=top;align=left;overflow=fill;html=1;whiteSpace=wrap;fillColor=#60a917;fontColor=#ffffff;strokeColor=#2D7600;" parent="nEFwIu7rk_B7aw5XNvFK-60" vertex="1">
          <mxGeometry x="17" y="58.5" width="177" height="177" as="geometry" />
        </mxCell>
        <mxCell id="nEFwIu7rk_B7aw5XNvFK-62" value="&lt;p style=&quot;margin:0px;margin-top:4px;text-align:center;&quot;&gt;&lt;i&gt;&amp;lt;&amp;lt;Interface&amp;gt;&amp;gt;&lt;/i&gt;&lt;br&gt;&lt;b&gt;UserDAO&lt;/b&gt;&lt;/p&gt;&lt;hr size=&quot;1&quot; style=&quot;border-style:solid;&quot;&gt;&lt;p style=&quot;margin:0px;margin-left:4px;&quot;&gt;&lt;br&gt;&lt;/p&gt;&lt;p style=&quot;margin:0px;margin-left:4px;&quot;&gt;extends JpaRespository&lt;/p&gt;" style="verticalAlign=top;align=left;overflow=fill;html=1;whiteSpace=wrap;" parent="nEFwIu7rk_B7aw5XNvFK-60" vertex="1">
          <mxGeometry x="417" y="88.25" width="99.5" height="117.5" as="geometry" />
        </mxCell>
        <mxCell id="nEFwIu7rk_B7aw5XNvFK-63" value="&lt;p style=&quot;margin:0px;margin-top:4px;text-align:center;&quot;&gt;&lt;b&gt;User&lt;/b&gt;&lt;/p&gt;&lt;hr size=&quot;1&quot; style=&quot;border-style:solid;&quot;&gt;&lt;p style=&quot;margin:0px;margin-left:4px;&quot;&gt;+ id: int&lt;/p&gt;&lt;p style=&quot;margin:0px;margin-left:4px;&quot;&gt;+ name: String&lt;/p&gt;&lt;p style=&quot;margin:0px;margin-left:4px;&quot;&gt;+ email: String&lt;/p&gt;&lt;p style=&quot;margin:0px;margin-left:4px;&quot;&gt;+ contact: String&lt;/p&gt;&lt;p style=&quot;margin:0px;margin-left:4px;&quot;&gt;&lt;br&gt;&lt;/p&gt;&lt;hr size=&quot;1&quot; style=&quot;border-style:solid;&quot;&gt;&lt;p style=&quot;margin:0px;margin-left:4px;&quot;&gt;+ User(): constructor&lt;/p&gt;&lt;p style=&quot;margin:0px;margin-left:4px;&quot;&gt;+ toString()&lt;/p&gt;&lt;p style=&quot;margin:0px;margin-left:4px;&quot;&gt;+ getters and setters&lt;/p&gt;" style="verticalAlign=top;align=left;overflow=fill;html=1;whiteSpace=wrap;" parent="nEFwIu7rk_B7aw5XNvFK-60" vertex="1">
          <mxGeometry x="542" y="52" width="134" height="177" as="geometry" />
        </mxCell>
        <mxCell id="nEFwIu7rk_B7aw5XNvFK-64" value="&lt;p style=&quot;margin:0px;margin-top:4px;text-align:center;&quot;&gt;&lt;b&gt;UserService&lt;/b&gt;&lt;/p&gt;&lt;hr size=&quot;1&quot; style=&quot;border-style:solid;&quot;&gt;&lt;p style=&quot;margin:0px;margin-left:4px;&quot;&gt;+ booksDAO: BooksDAO&lt;/p&gt;&lt;p style=&quot;margin:0px;margin-left:4px;&quot;&gt;&lt;br&gt;&lt;/p&gt;&lt;p style=&quot;margin:0px;margin-left:4px;&quot;&gt;&lt;br&gt;&lt;/p&gt;&lt;hr size=&quot;1&quot; style=&quot;border-style:solid;&quot;&gt;&lt;p style=&quot;margin: 0px 0px 0px 4px;&quot;&gt;+ addBook():&amp;nbsp; POST&lt;/p&gt;&lt;p style=&quot;margin: 0px 0px 0px 4px;&quot;&gt;+ getAllBooks(): GET&lt;/p&gt;&lt;p style=&quot;margin: 0px 0px 0px 4px;&quot;&gt;+ updateBook(): PATCH/POST&lt;/p&gt;&lt;p style=&quot;margin: 0px 0px 0px 4px;&quot;&gt;+ removeBook(): DELETE&lt;/p&gt;&lt;p style=&quot;margin: 0px 0px 0px 4px;&quot;&gt;+ rentBook(): POST&lt;/p&gt;&lt;p style=&quot;margin: 0px 0px 0px 4px;&quot;&gt;+ returnBook: POST&lt;/p&gt;" style="verticalAlign=top;align=left;overflow=fill;html=1;whiteSpace=wrap;fillColor=#60a917;fontColor=#ffffff;strokeColor=#2D7600;" parent="nEFwIu7rk_B7aw5XNvFK-60" vertex="1">
          <mxGeometry x="230" y="52" width="152" height="208.5" as="geometry" />
        </mxCell>
        <mxCell id="nEFwIu7rk_B7aw5XNvFK-65" value="USER" style="shape=datastore;whiteSpace=wrap;html=1;" parent="nEFwIu7rk_B7aw5XNvFK-60" vertex="1">
          <mxGeometry x="708" y="93.75" width="152" height="112" as="geometry" />
        </mxCell>
        <mxCell id="5kdqps3-O67HjnKyxypa-1" value="libraryTransactionService" style="swimlane;whiteSpace=wrap;html=1;" vertex="1" parent="1">
          <mxGeometry x="1553" y="-191" width="893" height="480" as="geometry" />
        </mxCell>
        <mxCell id="5kdqps3-O67HjnKyxypa-2" value="&lt;p style=&quot;margin:0px;margin-top:4px;text-align:center;&quot;&gt;&lt;b&gt;TransactionController&lt;/b&gt;&lt;/p&gt;&lt;hr size=&quot;1&quot; style=&quot;border-style:solid;&quot;&gt;&lt;p style=&quot;margin:0px;margin-left:4px;&quot;&gt;+ bookService: BookService&lt;/p&gt;&lt;p style=&quot;margin:0px;margin-left:4px;&quot;&gt;&lt;br&gt;&lt;/p&gt;&lt;hr size=&quot;1&quot; style=&quot;border-style:solid;&quot;&gt;&lt;p style=&quot;margin:0px;margin-left:4px;&quot;&gt;+ addBook():&amp;nbsp; POST&lt;/p&gt;&lt;p style=&quot;margin:0px;margin-left:4px;&quot;&gt;+ getAllBooks(): GET&lt;/p&gt;&lt;p style=&quot;margin:0px;margin-left:4px;&quot;&gt;+ updateBook(): PATCH/POST&lt;/p&gt;&lt;p style=&quot;margin:0px;margin-left:4px;&quot;&gt;+ removeBook(): DELETE&lt;/p&gt;&lt;p style=&quot;margin:0px;margin-left:4px;&quot;&gt;+ rentBook(): POST&lt;/p&gt;&lt;p style=&quot;margin:0px;margin-left:4px;&quot;&gt;+ returnBook: POST&lt;/p&gt;" style="verticalAlign=top;align=left;overflow=fill;html=1;whiteSpace=wrap;fillColor=#60a917;fontColor=#ffffff;strokeColor=#2D7600;" vertex="1" parent="5kdqps3-O67HjnKyxypa-1">
          <mxGeometry x="17" y="58.5" width="177" height="177" as="geometry" />
        </mxCell>
        <mxCell id="5kdqps3-O67HjnKyxypa-3" value="&lt;p style=&quot;margin:0px;margin-top:4px;text-align:center;&quot;&gt;&lt;i&gt;&amp;lt;&amp;lt;Interface&amp;gt;&amp;gt;&lt;/i&gt;&lt;br&gt;&lt;b&gt;TransactionDAO&lt;/b&gt;&lt;/p&gt;&lt;hr size=&quot;1&quot; style=&quot;border-style:solid;&quot;&gt;&lt;p style=&quot;margin:0px;margin-left:4px;&quot;&gt;&lt;br&gt;&lt;/p&gt;&lt;p style=&quot;margin:0px;margin-left:4px;&quot;&gt;extends JpaRespository&lt;/p&gt;" style="verticalAlign=top;align=left;overflow=fill;html=1;whiteSpace=wrap;" vertex="1" parent="5kdqps3-O67HjnKyxypa-1">
          <mxGeometry x="413" y="61" width="99.5" height="117.5" as="geometry" />
        </mxCell>
        <mxCell id="5kdqps3-O67HjnKyxypa-4" value="&lt;p style=&quot;margin:0px;margin-top:4px;text-align:center;&quot;&gt;&lt;b&gt;Transaction&lt;/b&gt;&lt;/p&gt;&lt;hr size=&quot;1&quot; style=&quot;border-style:solid;&quot;&gt;&lt;p style=&quot;margin:0px;margin-left:4px;&quot;&gt;+ id: int&lt;/p&gt;&lt;p style=&quot;margin:0px;margin-left:4px;&quot;&gt;+ name: String&lt;/p&gt;&lt;p style=&quot;margin:0px;margin-left:4px;&quot;&gt;+ email: String&lt;/p&gt;&lt;p style=&quot;margin:0px;margin-left:4px;&quot;&gt;+ contact: String&lt;/p&gt;&lt;p style=&quot;margin:0px;margin-left:4px;&quot;&gt;&lt;br&gt;&lt;/p&gt;&lt;hr size=&quot;1&quot; style=&quot;border-style:solid;&quot;&gt;&lt;p style=&quot;margin:0px;margin-left:4px;&quot;&gt;+ User(): constructor&lt;/p&gt;&lt;p style=&quot;margin:0px;margin-left:4px;&quot;&gt;+ toString()&lt;/p&gt;&lt;p style=&quot;margin:0px;margin-left:4px;&quot;&gt;+ getters and setters&lt;/p&gt;" style="verticalAlign=top;align=left;overflow=fill;html=1;whiteSpace=wrap;" vertex="1" parent="5kdqps3-O67HjnKyxypa-1">
          <mxGeometry x="542" y="52" width="134" height="177" as="geometry" />
        </mxCell>
        <mxCell id="5kdqps3-O67HjnKyxypa-5" value="&lt;p style=&quot;margin:0px;margin-top:4px;text-align:center;&quot;&gt;&lt;b&gt;TransactionService&lt;/b&gt;&lt;/p&gt;&lt;hr size=&quot;1&quot; style=&quot;border-style:solid;&quot;&gt;&lt;p style=&quot;margin:0px;margin-left:4px;&quot;&gt;+ booksDAO: BooksDAO&lt;/p&gt;&lt;p style=&quot;margin:0px;margin-left:4px;&quot;&gt;&lt;br&gt;&lt;/p&gt;&lt;p style=&quot;margin:0px;margin-left:4px;&quot;&gt;&lt;br&gt;&lt;/p&gt;&lt;hr size=&quot;1&quot; style=&quot;border-style:solid;&quot;&gt;&lt;p style=&quot;margin: 0px 0px 0px 4px;&quot;&gt;+ addBook():&amp;nbsp; POST&lt;/p&gt;&lt;p style=&quot;margin: 0px 0px 0px 4px;&quot;&gt;+ getAllBooks(): GET&lt;/p&gt;&lt;p style=&quot;margin: 0px 0px 0px 4px;&quot;&gt;+ updateBook(): PATCH/POST&lt;/p&gt;&lt;p style=&quot;margin: 0px 0px 0px 4px;&quot;&gt;+ removeBook(): DELETE&lt;/p&gt;&lt;p style=&quot;margin: 0px 0px 0px 4px;&quot;&gt;+ rentBook(): POST&lt;/p&gt;&lt;p style=&quot;margin: 0px 0px 0px 4px;&quot;&gt;+ returnBook: POST&lt;/p&gt;" style="verticalAlign=top;align=left;overflow=fill;html=1;whiteSpace=wrap;fillColor=#60a917;fontColor=#ffffff;strokeColor=#2D7600;" vertex="1" parent="5kdqps3-O67HjnKyxypa-1">
          <mxGeometry x="230" y="52" width="152" height="208.5" as="geometry" />
        </mxCell>
        <mxCell id="5kdqps3-O67HjnKyxypa-6" value="LibTransactionDB" style="shape=datastore;whiteSpace=wrap;html=1;" vertex="1" parent="5kdqps3-O67HjnKyxypa-1">
          <mxGeometry x="708" y="93.75" width="152" height="112" as="geometry" />
        </mxCell>
        <mxCell id="5kdqps3-O67HjnKyxypa-7" value="&lt;p style=&quot;margin:0px;margin-top:4px;text-align:center;&quot;&gt;&lt;i&gt;&amp;lt;&amp;lt;Interface&amp;gt;&amp;gt;&lt;/i&gt;&lt;br&gt;&lt;b&gt;TransactionDAO&lt;/b&gt;&lt;/p&gt;&lt;hr size=&quot;1&quot; style=&quot;border-style:solid;&quot;&gt;&lt;p style=&quot;margin:0px;margin-left:4px;&quot;&gt;&lt;br&gt;&lt;/p&gt;&lt;p style=&quot;margin:0px;margin-left:4px;&quot;&gt;extends JpaRespository&lt;/p&gt;" style="verticalAlign=top;align=left;overflow=fill;html=1;whiteSpace=wrap;" vertex="1" parent="5kdqps3-O67HjnKyxypa-1">
          <mxGeometry x="47" y="312" width="99.5" height="117.5" as="geometry" />
        </mxCell>
        <mxCell id="5kdqps3-O67HjnKyxypa-8" value="&lt;code&gt;Transaction status -&amp;gt; ISSUED&lt;/code&gt;, &lt;code&gt;RETURNED&lt;/code&gt;" style="text;whiteSpace=wrap;html=1;" vertex="1" parent="5kdqps3-O67HjnKyxypa-1">
          <mxGeometry x="389" y="308" width="327" height="36" as="geometry" />
        </mxCell>
      </root>
    </mxGraphModel>
  </diagram>
</mxfile>
